<?xml version="1.0" encoding="UTF-8"?><svg xmlns="http://www.w3.org/2000/svg" xmlns:xlink="http://www.w3.org/1999/xlink" fill-opacity="1" color-rendering="auto" color-interpolation="auto" text-rendering="auto" stroke="black" stroke-linecap="square" width="475" stroke-miterlimit="10" shape-rendering="auto" stroke-opacity="1" fill="black" stroke-dasharray="none" font-weight="normal" stroke-width="1" height="600" font-family="'Dialog'" font-style="normal" stroke-linejoin="miter" font-size="12px" stroke-dashoffset="0" image-rendering="auto">
  <!--Generated by ySVG 2.6-->
  <defs id="genericDefs"/>
  <g>
    <defs id="defs1">
      <linearGradient x1="200" gradientUnits="userSpaceOnUse" x2="360" y1="0" y2="70" id="linearGradient1" spreadMethod="reflect">
        <stop stop-opacity="1" stop-color="white" offset="0%"/>
        <stop stop-opacity="1" stop-color="white" offset="100%"/>
      </linearGradient>
      <linearGradient x1="200" gradientUnits="userSpaceOnUse" x2="360" y1="200" y2="270" id="linearGradient2" spreadMethod="reflect">
        <stop stop-opacity="1" stop-color="white" offset="0%"/>
        <stop stop-opacity="1" stop-color="white" offset="100%"/>
      </linearGradient>
      <linearGradient x1="200" gradientUnits="userSpaceOnUse" x2="360" y1="100" y2="170" id="linearGradient3" spreadMethod="reflect">
        <stop stop-opacity="1" stop-color="white" offset="0%"/>
        <stop stop-opacity="1" stop-color="white" offset="100%"/>
      </linearGradient>
      <linearGradient x1="200" gradientUnits="userSpaceOnUse" x2="360" y1="300" y2="370" id="linearGradient4" spreadMethod="reflect">
        <stop stop-opacity="1" stop-color="white" offset="0%"/>
        <stop stop-opacity="1" stop-color="white" offset="100%"/>
      </linearGradient>
      <linearGradient x1="10" gradientUnits="userSpaceOnUse" x2="170" y1="400" y2="470" id="linearGradient5" spreadMethod="reflect">
        <stop stop-opacity="1" stop-color="white" offset="0%"/>
        <stop stop-opacity="1" stop-color="white" offset="100%"/>
      </linearGradient>
      <linearGradient x1="295" gradientUnits="userSpaceOnUse" x2="455" y1="400" y2="470" id="linearGradient6" spreadMethod="reflect">
        <stop stop-opacity="1" stop-color="white" offset="0%"/>
        <stop stop-opacity="1" stop-color="white" offset="100%"/>
      </linearGradient>
      <linearGradient x1="10" gradientUnits="userSpaceOnUse" x2="170" y1="200" y2="270" id="linearGradient7" spreadMethod="reflect">
        <stop stop-opacity="1" stop-color="white" offset="0%"/>
        <stop stop-opacity="1" stop-color="white" offset="100%"/>
      </linearGradient>
      <linearGradient x1="10" gradientUnits="userSpaceOnUse" x2="170" y1="100" y2="170" id="linearGradient8" spreadMethod="reflect">
        <stop stop-opacity="1" stop-color="white" offset="0%"/>
        <stop stop-opacity="1" stop-color="white" offset="100%"/>
      </linearGradient>
      <linearGradient x1="10" gradientUnits="userSpaceOnUse" x2="170" y1="300" y2="370" id="linearGradient9" spreadMethod="reflect">
        <stop stop-opacity="1" stop-color="white" offset="0%"/>
        <stop stop-opacity="1" stop-color="white" offset="100%"/>
      </linearGradient>
      <linearGradient x1="10" gradientUnits="userSpaceOnUse" x2="170" y1="500" y2="570" id="linearGradient10" spreadMethod="reflect">
        <stop stop-opacity="1" stop-color="white" offset="0%"/>
        <stop stop-opacity="1" stop-color="white" offset="100%"/>
      </linearGradient>
      <linearGradient x1="10" gradientUnits="userSpaceOnUse" x2="170" y1="0" y2="70" id="linearGradient11" spreadMethod="reflect">
        <stop stop-opacity="1" stop-color="white" offset="0%"/>
        <stop stop-opacity="1" stop-color="white" offset="100%"/>
      </linearGradient>
      <clipPath clipPathUnits="userSpaceOnUse" id="clipPath1">
        <path d="M0 0 L475 0 L475 600 L0 600 L0 0 Z"/>
      </clipPath>
      <clipPath clipPathUnits="userSpaceOnUse" id="clipPath2">
        <path d="M-5 -15 L470 -15 L470 585 L-5 585 L-5 -15 Z"/>
      </clipPath>
    </defs>
    <g fill="white" text-rendering="geometricPrecision" shape-rendering="geometricPrecision" transform="translate(5,15)" stroke="white">
      <rect x="-5" width="475" height="600" y="-15" clip-path="url(#clipPath2)" stroke="none"/>
    </g>
    <g fill="url(#linearGradient1)" text-rendering="geometricPrecision" shape-rendering="geometricPrecision" transform="matrix(1,0,0,1,5,15)" stroke="url(#linearGradient1)">
      <rect x="200" y="0" clip-path="url(#clipPath2)" width="160" rx="35" ry="35" height="70" stroke="none"/>
    </g>
    <g text-rendering="geometricPrecision" stroke-miterlimit="1.45" shape-rendering="geometricPrecision" transform="matrix(1,0,0,1,5,15)" stroke-linecap="butt">
      <rect x="200" y="0" clip-path="url(#clipPath2)" fill="none" width="160" rx="35" ry="35" height="70"/>
      <text x="257.084" xml:space="preserve" y="39.1543" clip-path="url(#clipPath2)" font-family="sans-serif" stroke="none">Начало</text>
    </g>
    <g fill="url(#linearGradient2)" text-rendering="geometricPrecision" shape-rendering="geometricPrecision" transform="matrix(1,0,0,1,5,15)" stroke="url(#linearGradient2)">
      <path d="M200 200 L360 200 L360 270 L200 270 Z" stroke="none" clip-path="url(#clipPath2)"/>
    </g>
    <g text-rendering="geometricPrecision" stroke-miterlimit="1.45" shape-rendering="geometricPrecision" transform="matrix(1,0,0,1,5,15)" stroke-linecap="butt">
      <path fill="none" d="M200 200 L360 200 L360 270 L200 270 Z" clip-path="url(#clipPath2)"/>
      <text x="241.2549" xml:space="preserve" y="239.1543" clip-path="url(#clipPath2)" font-family="sans-serif" stroke="none">Создать луч</text>
    </g>
    <g fill="url(#linearGradient3)" text-rendering="geometricPrecision" shape-rendering="geometricPrecision" transform="matrix(1,0,0,1,5,15)" stroke="url(#linearGradient3)">
      <path d="M210 100 L350 100 L360 110 L360 170 L200 170 L200 110 Z" stroke="none" clip-path="url(#clipPath2)"/>
    </g>
    <g text-rendering="geometricPrecision" stroke-miterlimit="1.45" shape-rendering="geometricPrecision" transform="matrix(1,0,0,1,5,15)" stroke-linecap="butt">
      <path fill="none" d="M210 100 L350 100 L360 110 L360 170 L200 170 L200 110 Z" clip-path="url(#clipPath2)"/>
      <text x="235.6152" xml:space="preserve" y="132.1699" clip-path="url(#clipPath2)" font-family="sans-serif" stroke="none">Цикл по всем </text>
      <text x="225.6836" xml:space="preserve" y="146.1387" clip-path="url(#clipPath2)" font-family="sans-serif" stroke="none">пикселям экрана</text>
    </g>
    <g fill="url(#linearGradient4)" text-rendering="geometricPrecision" shape-rendering="geometricPrecision" transform="matrix(1,0,0,1,5,15)" stroke="url(#linearGradient4)">
      <path d="M280 300 L360 335 L280 370 L200 335 Z" stroke="none" clip-path="url(#clipPath2)"/>
    </g>
    <g text-rendering="geometricPrecision" stroke-miterlimit="1.45" shape-rendering="geometricPrecision" transform="matrix(1,0,0,1,5,15)" stroke-linecap="butt">
      <path fill="none" d="M280 300 L360 335 L280 370 L200 335 Z" clip-path="url(#clipPath2)"/>
      <text x="227.9863" xml:space="preserve" y="332.1699" clip-path="url(#clipPath2)" font-family="sans-serif" stroke="none">Луч пересекает </text>
      <text x="257.5791" xml:space="preserve" y="346.1387" clip-path="url(#clipPath2)" font-family="sans-serif" stroke="none">объект</text>
    </g>
    <g fill="url(#linearGradient5)" text-rendering="geometricPrecision" shape-rendering="geometricPrecision" transform="matrix(1,0,0,1,5,15)" stroke="url(#linearGradient5)">
      <path d="M10 400 L170 400 L170 470 L10 470 Z" stroke="none" clip-path="url(#clipPath2)"/>
    </g>
    <g text-rendering="geometricPrecision" stroke-miterlimit="1.45" shape-rendering="geometricPrecision" transform="matrix(1,0,0,1,5,15)" stroke-linecap="butt">
      <path fill="none" d="M10 400 L170 400 L170 470 L10 470 Z" clip-path="url(#clipPath2)"/>
      <text x="54.0762" xml:space="preserve" y="432.1699" clip-path="url(#clipPath2)" font-family="sans-serif" stroke="none">Цвет равен</text>
      <text x="56.8857" xml:space="preserve" y="446.1387" clip-path="url(#clipPath2)" font-family="sans-serif" stroke="none">цвет фона</text>
    </g>
    <g fill="url(#linearGradient6)" text-rendering="geometricPrecision" shape-rendering="geometricPrecision" transform="matrix(1,0,0,1,5,15)" stroke="url(#linearGradient6)">
      <path d="M295 400 L455 400 L455 470 L295 470 Z" stroke="none" clip-path="url(#clipPath2)"/>
    </g>
    <g text-rendering="geometricPrecision" stroke-miterlimit="1.45" shape-rendering="geometricPrecision" transform="matrix(1,0,0,1,5,15)" stroke-linecap="butt">
      <path fill="none" d="M295 400 L455 400 L455 470 L295 470 Z" clip-path="url(#clipPath2)"/>
      <text x="323.3203" xml:space="preserve" y="432.1699" clip-path="url(#clipPath2)" font-family="sans-serif" stroke="none">Учитываем тени</text>
      <text x="334.0137" xml:space="preserve" y="446.1387" clip-path="url(#clipPath2)" font-family="sans-serif" stroke="none">и отражения</text>
    </g>
    <g fill="url(#linearGradient7)" text-rendering="geometricPrecision" shape-rendering="geometricPrecision" transform="matrix(1,0,0,1,5,15)" stroke="url(#linearGradient7)">
      <path d="M10 200 L170 200 L170 260 L160 270 L20 270 L10 260 Z" stroke="none" clip-path="url(#clipPath2)"/>
    </g>
    <g text-rendering="geometricPrecision" stroke-miterlimit="1.45" shape-rendering="geometricPrecision" transform="matrix(1,0,0,1,5,15)" stroke-linecap="butt">
      <path fill="none" d="M10 200 L170 200 L170 260 L160 270 L20 270 L10 260 Z" clip-path="url(#clipPath2)"/>
      <text x="47.5225" xml:space="preserve" y="232.1699" clip-path="url(#clipPath2)" font-family="sans-serif" stroke="none">Цикл по всем</text>
      <text x="35.6836" xml:space="preserve" y="246.1387" clip-path="url(#clipPath2)" font-family="sans-serif" stroke="none">пикселям экрана</text>
    </g>
    <g fill="url(#linearGradient8)" text-rendering="geometricPrecision" shape-rendering="geometricPrecision" transform="matrix(1,0,0,1,5,15)" stroke="url(#linearGradient8)">
      <path d="M10 100 L170 100 L170 170 L10 170 Z" stroke="none" clip-path="url(#clipPath2)"/>
    </g>
    <g text-rendering="geometricPrecision" stroke-miterlimit="1.45" shape-rendering="geometricPrecision" transform="matrix(1,0,0,1,5,15)" stroke-linecap="butt">
      <path fill="none" d="M10 100 L170 100 L170 170 L10 170 Z" clip-path="url(#clipPath2)"/>
      <text x="27.4189" xml:space="preserve" y="125.1855" clip-path="url(#clipPath2)" font-family="sans-serif" stroke="none">Закрасить текущий</text>
      <text x="22.96" xml:space="preserve" y="139.1543" clip-path="url(#clipPath2)" font-family="sans-serif" stroke="none">пиксель полученным</text>
      <text x="66.9961" xml:space="preserve" y="153.123" clip-path="url(#clipPath2)" font-family="sans-serif" stroke="none">цветом</text>
    </g>
    <g fill="url(#linearGradient9)" text-rendering="geometricPrecision" shape-rendering="geometricPrecision" transform="matrix(1,0,0,1,5,15)" stroke="url(#linearGradient9)">
      <rect x="10" y="300" clip-path="url(#clipPath2)" width="160" rx="35" ry="35" height="70" stroke="none"/>
    </g>
    <g text-rendering="geometricPrecision" stroke-miterlimit="1.45" shape-rendering="geometricPrecision" transform="matrix(1,0,0,1,5,15)" stroke-linecap="butt">
      <rect x="10" y="300" clip-path="url(#clipPath2)" fill="none" width="160" rx="35" ry="35" height="70"/>
      <text x="70.3711" xml:space="preserve" y="339.1543" clip-path="url(#clipPath2)" font-family="sans-serif" stroke="none">Конец</text>
    </g>
    <g fill="url(#linearGradient10)" text-rendering="geometricPrecision" shape-rendering="geometricPrecision" transform="matrix(1,0,0,1,5,15)" stroke="url(#linearGradient10)">
      <circle r="35" clip-path="url(#clipPath2)" cx="90" cy="535" stroke="none"/>
    </g>
    <g text-rendering="geometricPrecision" stroke-miterlimit="1.45" shape-rendering="geometricPrecision" transform="matrix(1,0,0,1,5,15)" stroke-linecap="butt">
      <circle fill="none" r="35" clip-path="url(#clipPath2)" cx="90" cy="535"/>
      <text x="85.8955" xml:space="preserve" y="539.1543" clip-path="url(#clipPath2)" font-family="sans-serif" stroke="none">A</text>
    </g>
    <g fill="url(#linearGradient11)" text-rendering="geometricPrecision" shape-rendering="geometricPrecision" transform="matrix(1,0,0,1,5,15)" stroke="url(#linearGradient11)">
      <circle r="35" clip-path="url(#clipPath2)" cx="90" cy="35" stroke="none"/>
    </g>
    <g text-rendering="geometricPrecision" stroke-miterlimit="1.45" shape-rendering="geometricPrecision" transform="matrix(1,0,0,1,5,15)" stroke-linecap="butt">
      <circle fill="none" r="35" clip-path="url(#clipPath2)" cx="90" cy="35"/>
      <text x="85.8955" xml:space="preserve" y="39.1543" clip-path="url(#clipPath2)" font-family="sans-serif" stroke="none">A</text>
    </g>
    <g text-rendering="geometricPrecision" stroke-miterlimit="1.45" shape-rendering="geometricPrecision" transform="matrix(1,0,0,1,5,15)" stroke-linecap="butt">
      <path fill="none" d="M280 70 L280 91.9707" clip-path="url(#clipPath2)"/>
    </g>
    <g text-rendering="geometricPrecision" stroke-miterlimit="1.45" shape-rendering="geometricPrecision" transform="matrix(1,0,0,1,5,15)" stroke-linecap="butt">
      <path d="M280 99.9707 L285 87.9707 L280 90.9707 L275 87.9707 Z" stroke="none" clip-path="url(#clipPath2)"/>
      <path fill="none" d="M280 170 L280 191.9707" clip-path="url(#clipPath2)"/>
      <path d="M280 199.9707 L285 187.9707 L280 190.9707 L275 187.9707 Z" clip-path="url(#clipPath2)" stroke="none"/>
      <path fill="none" d="M280 270 L280 292" clip-path="url(#clipPath2)"/>
      <path d="M280 300 L285 288 L280 291 L275 288 Z" clip-path="url(#clipPath2)" stroke="none"/>
      <path fill="none" d="M199.9707 335 L185 335 L185 385 L90 385 L90 391.9707" clip-path="url(#clipPath2)"/>
      <path d="M90 399.9707 L95 387.9707 L90 390.9707 L85 387.9707 Z" clip-path="url(#clipPath2)" stroke="none"/>
      <path fill="none" d="M360 335 L375 335 L375 391.9683" clip-path="url(#clipPath2)"/>
      <path d="M375 399.9683 L380 387.9683 L375 390.9683 L370 387.9683 Z" clip-path="url(#clipPath2)" stroke="none"/>
      <text x="363.6982" xml:space="preserve" y="328.1699" clip-path="url(#clipPath2)" font-family="sans-serif" stroke="none">Да</text>
      <path fill="none" d="M90 170 L90 191.9707" clip-path="url(#clipPath2)"/>
      <path d="M90 199.9707 L95 187.9707 L90 190.9707 L85 187.9707 Z" clip-path="url(#clipPath2)" stroke="none"/>
      <path fill="none" d="M90 270 L90 291.9707" clip-path="url(#clipPath2)"/>
      <path d="M90 299.9707 L95 287.9707 L90 290.9707 L85 287.9707 Z" clip-path="url(#clipPath2)" stroke="none"/>
      <path fill="none" d="M90 470 L90 492" clip-path="url(#clipPath2)"/>
      <path d="M90 500 L95 488 L90 491 L85 488 Z" clip-path="url(#clipPath2)" stroke="none"/>
      <path fill="none" d="M375 470 L375 485 L90 485 L90 492" clip-path="url(#clipPath2)"/>
      <path d="M90 500 L95 488 L90 491 L85 488 Z" clip-path="url(#clipPath2)" stroke="none"/>
      <path fill="none" d="M90 70 L90 91.9707" clip-path="url(#clipPath2)"/>
      <path d="M90 99.9707 L95 87.9707 L90 90.9707 L85 87.9707 Z" clip-path="url(#clipPath2)" stroke="none"/>
    </g>
  </g>
</svg>
